# xmcd CD database file
#
# Track frame offsets:
#	150
#	16852
#	34577
#	59570
#	88267
#	110885
#	126310
#	139575
#	151335
#	166832
#	177652
#	198117
#	214477
#	230640
#	256822
#	273337
#
# Disc length: 4092 seconds
#
# Revision: 5
# Processed by: cddbd v1.5.2PL0 Copyright (c) Steve Scherf et al.
# Submitted via: CDex 1.80
#
DISCID=e80ffa10
DTITLE=Various Artist - The Cream of New Country
DYEAR=1993
DGENRE=Country
TTITLE0=Long Time Gone - John Starling (Featuring Lowell Geiorge)
TTITLE1=Amarillo Highway -Terry Allen
TTITLE2=Smoking In The Rain - Butch Hancock (Featuring Jimmie Dale Gilmore)
TTITLE3=Meadow Green -Peter Rowan (Featuring Maura O'Connell)
TTITLE4=The Road Goes On Forever - Robert Earl Keen
TTITLE5=Time To Learn - Tim O'Brien (Featuring Mary Chapin Carpenter)
TTITLE6=Lose Again - Alison Krauss and Union Station
TTITLE7=I'll Stay Around - Ricky Skaggs (Featuring Emmylou Harris)
TTITLE8=One More Ride - Marty Stuart (Featuring Johnny Cash, Doc Watson and Jerry Douglas)
TTITLE9=Talk About Sufferin' - Ricky Skaggs
TTITLE10=Playin' Fool - Katy Moffatt
TTITLE11=Whenever Kindness Fails - By The Rio Grande
TTITLE12=By The Rio Grande - Tish Hinojosa
TTITLE13=A New Day Medley - Jerry Douglas
TTITLE14=Hickory Wind - Chris Hillman
TTITLE15=New Delhi Freight Train - Terry Allen
EXTD=YEAR: 1993
EXTT0=
EXTT1=
EXTT2=
EXTT3=
EXTT4=
EXTT5=
EXTT6=
EXTT7=
EXTT8=
EXTT9=
EXTT10=
EXTT11=
EXTT12=
EXTT13=
EXTT14=
EXTT15=
PLAYORDER=
